<svg id="Layer_1" enable-background="new 0 0 510 510" height="512" viewBox="0 0 510 510" width="512" xmlns="http://www.w3.org/2000/svg"><g id="XMLID_1764_"><path id="XMLID_1768_" d="m510 0c-4.7 0-160.3 0-165 0l-15 75 15 75h165c-6.8-9.1-49.4-65.9-56.3-75 6.9-9.1 49.5-65.9 56.3-75z" fill="#c21456"/><g id="XMLID_1977_"><g><g id="XMLID_592_"><path d="m330 270c-5.2 0-9.8 0-15 0 0-15 0-255 0-270h15l15 135z" fill="#4e6ba6"/></g></g></g><g id="XMLID_1_"><g><g id="XMLID_2_"><path d="m330 0h15v270c-5.2 0-9.8 0-15 0z" fill="#28487a"/></g></g></g><path id="XMLID_1870_" d="m90 510c-10.9 0-79 0-90 0 0-10.1 0-139.9 0-150h90l15 75z" fill="#8493fb"/><path id="XMLID_1850_" d="m180 510c-10.9 0-79 0-90 0 0-10 0-170 0-180h90l15 90z" fill="#bfe85f"/><path d="m205.1 90v30h28.3l-49.5 48.7-31.9-31.9-127.6 127.6 21.2 21.2 106.4-106.4 31.8 31.8 71.2-70.2v29.1h30v-79.9z" fill="#a7cafc"/><path id="XMLID_1866_" d="m270 510c-10.9 0-79 0-90 0 0-11.7 0-198.3 0-210h90l15 105z" fill="#dd4e4e"/><path id="XMLID_1853_" d="m330 510c-7.3 0-52.7 0-60 0 0-6.8 0-233.2 0-240h60l15 120z" fill="#f4d844"/><path id="XMLID_1770_" d="m390 510c-7.3 0-52.7 0-60 0 0-6.8 0-233.2 0-240h60z" fill="#ecbd2c"/></g></svg>