<svg id="Capa_1" enable-background="new 0 0 512 512" height="512" viewBox="0 0 512 512" width="512" xmlns="http://www.w3.org/2000/svg"><g><g><path d="m512 256c0 141.387-114.613 256-256 256s-256-114.613-256-256 114.613-256 256-256 256 114.613 256 256z" fill="#a8eb58"/><path d="m512 256c0 26.051-3.891 51.191-11.129 74.871-5.031 16.469-11.672 32.231-19.75 47.109-8.25 15.2-18 29.461-29.051 42.61-.582.691-1.16 1.379-1.75 2.058-46.941 54.704-116.59 89.352-194.32 89.352s-147.379-34.648-194.309-89.352c-.589-.687-1.179-1.378-1.75-2.07-11.062-13.137-20.812-27.398-29.05-42.598-3.289-6.031-6.332-12.21-9.121-18.531-14-31.629-21.77-66.629-21.77-103.449 0-46.219 12.25-89.57 33.68-127 44.121 77.07 127.16 129 222.32 129s178.211-51.93 222.32-129c21.43 37.43 33.68 80.781 33.68 127z" fill="#80cf8c"/><path d="m481.262 377.699c-7.16 13.223-15.434 25.742-24.723 37.43-8.437 10.633-17.719 20.57-27.719 29.723-45.539 41.699-106.211 67.148-172.82 67.148s-127.281-25.449-172.82-67.148c-10-9.153-19.282-19.09-27.719-29.723-9.289-11.688-17.563-24.207-24.723-37.43z" fill="#599d8a"/></g><g><path d="m231.092 507.378 11.895-27.712v-135.973l-11.895-15.526-15.4-59.473h-138.603l-25.208 59.473c0 98.386 80.825 179.211 179.211 179.211z" fill="#e36565"/><path d="m144.568 268.695h-67.479l-25.208 59.473c0 67.086 37.586 125.997 92.688 156.697v-216.17z" fill="#ea8c8b"/><path d="m231.092 328.167v41.631c-26.276 0-47.578 21.302-47.578 47.578s21.302 47.578 47.578 47.578v42.424c98.385 0 178.418-80.826 178.418-179.211l-22.161-11.895h-124.705z" fill="#dce0ef"/><path d="m409.51 197.327v-47.578h-47.578c0-26.24-21.338-48.371-47.578-48.371s-47.578 22.131-47.578 48.371h-35.684l-11.895 20.408v135.973l11.895 22.036h41.631c0 26.276 21.302 47.578 47.578 47.578s47.578-21.302 47.578-47.578h41.631v-35.684c26.24 0 48.371-21.338 48.371-47.578s-22.131-47.577-48.371-47.577z" fill="#efc142"/><path d="m231.092 191.38v-41.631c-98.385 0-179.211 80.033-179.211 178.418h42.424c0-26.276 21.302-47.578 47.578-47.578s47.578 21.302 47.578 47.578h41.631v-41.631c26.276 0 47.578-21.302 47.578-47.578s-21.302-47.578-47.578-47.578z" fill="#8ab8ec"/><path d="m144.568 172.073c-55.102 30.465-92.688 89.008-92.688 156.094h42.424c0-26.276 21.302-47.578 47.578-47.578.902 0 1.796.03 2.686.08z" fill="#abccf1"/></g><g fill="#fff"><path d="m82.454 156.423h-1.524c-6.754 0-12.226-5.477-12.226-12.227v-1.523h-8.715v1.523c0 6.75-5.477 12.227-12.227 12.227h-1.527v8.715h1.527c6.75 0 12.227 5.472 12.227 12.226v1.528h8.715v-1.528c0-6.754 5.472-12.226 12.226-12.226h1.524z"/><path d="m155.478 89.485h-1.524c-6.754 0-12.226-5.477-12.226-12.227v-1.523h-8.715v1.523c0 6.75-5.477 12.227-12.227 12.227h-1.527v8.715h1.527c6.75 0 12.227 5.472 12.227 12.226v1.528h8.715v-1.528c0-6.754 5.472-12.226 12.226-12.226h1.524z"/><path d="m257.407 60.579h-1.524c-6.754 0-12.226-5.477-12.226-12.227v-1.523h-8.715v1.523c0 6.75-5.477 12.227-12.227 12.227h-1.527v8.715h1.527c6.75 0 12.227 5.472 12.227 12.226v1.528h8.715v-1.528c0-6.754 5.472-12.226 12.226-12.226h1.524z"/></g></g></svg>